<?xml version="1.0" standalone="no"?><!DOCTYPE svg PUBLIC "-//W3C//DTD SVG 1.1//EN" "http://www.w3.org/Graphics/SVG/1.1/DTD/svg11.dtd"><svg class="icon" height="512" viewBox="0 0 1024 1024" version="1.1" xmlns="http://www.w3.org/2000/svg"><path d="M700.1 944.8 323.8 944.8c-41.6 0-75.3-33.7-75.3-75.3L248.5 154.4c0-41.6 33.7-75.3 75.3-75.3l376.4 0c41.6 0 75.3 33.7 75.3 75.3l0 715.1C775.4 911.1 741.7 944.8 700.1 944.8zM737.8 154.4c0-20.8-16.8-37.6-37.6-37.6L323.8 116.8c-20.8 0-37.6 16.8-37.6 37.6l0 56.4 451.7 0L737.8 154.4 737.8 154.4zM737.8 248.6 286.1 248.6l0 432.8 451.7 0L737.8 248.6zM737.8 719 286.1 719l0 150.6c0 20.8 16.8 37.6 37.6 37.6l376.4 0c20.8 0 37.6-16.8 37.6-37.6L737.8 719 737.8 719zM512 869.6c-31.2 0-56.4-25.3-56.4-56.4 0-31.2 25.3-56.4 56.4-56.4s56.4 25.3 56.4 56.4C568.4 844.3 543.2 869.6 512 869.6z" /></svg>