<?xml version="1.0" encoding="utf-8"?>
<!-- Svg Vector Icons : http://www.onlinewebfonts.com/icon -->
<!DOCTYPE svg PUBLIC "-//W3C//DTD SVG 1.1//EN" "http://www.w3.org/Graphics/SVG/1.1/DTD/svg11.dtd">
<svg version="1.1" xmlns="http://www.w3.org/2000/svg" xmlns:xlink="http://www.w3.org/1999/xlink" x="0px" y="0px" viewBox="0 0 1000 1000" enable-background="new 0 0 1000 1000" xml:space="preserve">
<metadata> Svg Vector Icons : http://www.onlinewebfonts.com/icon </metadata>
<g><path d="M242,165.5l-59.9-30.4c0,0-18.5-10.8-30.6,11.9c-0.4,9.1-139.3,301.4-139.3,301.4s-8.8,24,9.3,33.6l54.8,29.4c0,0,24.9,14.9,38.1-12.9l135.8-295.7C250.1,202.6,263,177.4,242,165.5z"/><path d="M986.5,445.8L846.8,152.1c0,0-11.2-26-33.1-16.3l-59.9,30.2c0,0-19.6,8.6-10,32.4c6.7,6,141.7,300.3,141.7,300.3s12.6,22,31,13.1l56-26.8C972.6,485.1,999.4,473.8,986.5,445.8z"/><path d="M720.2,230.2c-35.2,6.1-113.8-20-113.8-20c-15.9-9.5-75.3-12.8-75.3-12.8c-45.5-3.3-105.9,32.3-105.9,32.3H278.3l-21.4,46.2h97.3C329,308.1,326.9,346,326.9,346c1.6,52.8-16.6,77.9-16.6,77.9c-14.4,42.4,47.6,47.3,47.6,47.3c90.9-15.5,96.1-100.7,96.1-100.7c30-52.3,80.2-27.3,80.2-27.3l270.1,245.5c21.9,21.7,5.6,48.1,5.6,48.1c-12.9,24.5-41.7,15.1-41.7,15.1l-191-141.7c-34.7-8.8-23.5,25-23.5,25l185.2,140.8c13.6,19.1,0,37.5,0,37.5c-10,18.5-33.9,8.6-33.9,8.6L537.3,598.5c-32.1-2.3-19.6,27.5-19.6,27.5l141.4,106.4c18.2,20.1,5.4,38.6,5.4,38.6c-13.2,21.5-34.9,11.8-34.9,11.8l-132.9-97.5c-32.7-4.4-22.3,24.1-22.3,24.1l89.2,70.8c-2.1,39.6-40.1,23.9-40.1,23.9l-23.8-18.3C481.3,772,471,763.5,471,763.5l-26.5-20.2c1.3-19.3-15.7-35.7-15.7-35.7c-13.9-17.4-42.4-10-42.4-10c-9.3-6.9-13.9-12.3-13.9-12.3c1.8-26-14.2-39.3-14.2-39.3c-17.5-21.5-46.5-14.2-46.5-14.2c-3.2-3.8-9.4-10.7-9.4-10.7c6.1-31.5-7.8-48.2-7.8-48.2c-14.8-27.5-57-17.4-57-17.4l-64.9-85.3L154.2,511l54.8,73.2l-36.9,52.6c-22.8,36.1,3.8,59.8,3.8,59.8c47.2,38.6,78-2.1,78-2.1c-21.1,41.9,5.3,64.4,5.3,64.4c38.8,37.9,74-3.9,74-3.9c-22.8,40.3,1.9,59.6,1.9,59.6c44.4,46.2,81.7-15.3,81.7-15.3c-19.5,33.9,8.3,57.8,8.3,57.8c43.8,34,74.6-26.4,74.6-26.4c17.1,17.2,46.5,12.5,46.5,12.5c40.3-6.9,48.3-40.3,48.3-40.3c50.5,35.6,83.1,6.4,83.1,6.4c27.5-19.8,25.1-49.6,25.1-49.6c41.4,6.7,58.5-17.7,58.5-17.7c23.3-19,18.2-52.7,18.2-52.7c33.2-1.6,53.5-17.8,61.4-34.5c28.4-49.9-10.1-91.1-10.1-91.1l20.9-49.6L720.2,230.2z"/></g>
</svg>